<?xml version="1.0" encoding="UTF-8"?>
<svg id="Capa_1" data-name="Capa 1" xmlns="http://www.w3.org/2000/svg" viewBox="0 0 853.62 324">
  <defs>
    <style>
      .cls-1 {
        fill: #a3866b;
      }

      .cls-2 {
        fill: #979797;
      }

      .cls-3 {
        fill: #0a0a0a;
      }
    </style>
  </defs>
  <rect class="cls-3" width="853.62" height="324"/>
  <g>
    <path class="cls-2" d="M708.6,183.08l32.51-49.02h19v56.01s-8-.01-8-.01v-46.91h-5.56s-26.95,39.46-32.57,46.03c-.09.1-.56.8-.65.88-1.14.03-2.04,0-3.59,0h-8.69s-20.15-23.55-23.94-28c0,0,14.23.46,19.28-.4,2.74-.47,4.99-1.73,6.43-2.88,4.71-3.74,2.38-15.15-4.21-15.72h-28.5l.24,47h-9.24v-56c13.15.1,27.87-.24,38,.1,14.76.5,19.32,23.28,8.49,31.89-3.46,2.75-8.68,3.24-12.68,3.05.49.8,8.63,9.19,13.42,14.31"/>
    <path class="cls-2" d="M502.5,150.12s4.82-14.01,5.76-15.92l16.75-.02,19.11,55.88h-8.34s-16.48-46.91-16.48-46.91h-3.75l-18.48,46.91h-9.41l10.28-26.13-7.69-20.81-4.57.02-16.65,46.81-8.9.1,19.09-55.89,16.74.07"/>
    <polygon class="cls-2" points="381.12 134.06 381.12 143.15 339.12 143.06 339.12 158.06 379.12 158.06 379.12 166.06 339.12 166.06 339.12 181.06 381.12 181.23 381.12 190.06 330.75 190.06 330.06 137.51 330.06 134.06 381.12 134.06"/>
    <path class="cls-2" d="M600.12,134.06c0,1.67,0,9.09,0,9.09l-42-.09v15h41l.06,8.62h-40.68l-.38,14.38h42s0,7.33,0,9h-50v-56h50Z"/>
    <path class="cls-2" d="M424.12,134.16c14.76.5,19.32,23.28,8.49,31.89-3.46,2.75-8.68,3.24-12.68,3.05.66,1.07,14.98,15.71,16.7,17.95.77,1,2.45,3.01,2.45,3.01l-12.89.14s-20.28-23.69-24.06-28.14c0,0,14.22.46,19.28-.4,2.74-.47,4.99-1.73,6.44-2.87,4.7-3.74,2.37-15.15-4.21-15.72h-28.5l.23,47s-7.57,0-9.23,0v-56c13.15.1,27.87-.24,38,.1Z"/>
    <path class="cls-2" d="M311.03,134.06c14.9.67,20.23,24.87,6.43,33.84-.88.57-3.5,2.05-5.34,2.44-6.98,1.45-30,.72-30,.72v19c-1.67,0-9,0-9,0v-28h36.5c4.1-.1,6.7-4.62,7.31-7.77,1.24-6.46-2.13-11.3-10.17-11.15-13.51.25-33.38,0-33.38,0l-.25-9.09s23.81-.64,37.92,0Z"/>
    <path class="cls-2" d="M656.12,134.06v9h-22v47c-1.67,0-9,.58-9-1.5v-45.5h-22v-9h53Z"/>
    <path class="cls-2" d="M775.12,134.06v47l33-.02s0,7.35,0,9.02h-41v-56h8Z"/>
    <polyline class="cls-2" points="454.65 190.06 446.12 190.06 446.12 134.06 455.12 134.06"/>
    <path class="cls-2" d="M515.6,190.06l-8.47.16-3.33-9.3-.44-1.41c-.07-.04,3.13-7.44,4.2-10.71,1.14,2.94,1.85,5.14,2.37,6.68.95,2.79,5.66,14.57,5.66,14.57Z"/>
  </g>
  <path class="cls-1" d="M247.69,123.77l.03,27.77-29.91,10.6,29.53,11.48.36,26.9-91.09,32.25-4.37,1.34-94.28-33.62-.02-27.75,29.89-10.61-29.91-10.6.49-28.02,93.95-33.63,95.32,33.88ZM152.36,104.34l-1.9.62-78.05,28.57-.45,7.97,80.53,28.91c5.27-.95,17.82-5.84,17.82-5.84l19.66,7.51s-.27.12-2.05.84l-35.56,11.77-43.8-14.86c-4.28,2.45-36.81,13.05-36.81,13.05v7.51l79.71,29.26.89.25,80.91-29.82.44-7.34-77.61-27.88c-.73-.22-2.04-.83-2.04-.83l-18.93,5.71s-.29-.08-.65-.19c-1.53-.47-15.1-4.85-17.24-5.83-.85-.39-3.44-1.45-3.44-1.45,0,0,1.56-.47,2.03-.64l36.49-12.1,44.77,14.89,36.64-12.89c.28-.32.33-7.18-.04-7.76l-81.32-29.44Z"/>
</svg>