<svg width="747" height="144" viewBox="0 0 747 144" fill="none" xmlns="http://www.w3.org/2000/svg">
<g clip-path="url(#clip0_301_4)">
<path d="M648.215 92.9499L680.587 44.2325H699.507V99.8968L691.54 99.8868V53.2664H686.004C686.004 53.2664 659.168 92.4828 653.572 99.0123C653.483 99.1116 653.015 99.8073 652.925 99.8868C651.79 99.9166 650.894 99.8868 649.35 99.8868H640.697C640.697 99.8868 620.632 76.4822 616.859 72.0597C616.859 72.0597 631.028 72.5168 636.057 71.6621C638.785 71.195 641.026 69.9428 642.46 68.7999C647.15 65.083 644.829 53.7434 638.267 53.177H609.888L610.127 99.8868H600.926V44.2325C614.021 44.3319 628.678 43.994 638.765 44.3319C653.463 44.8288 658.003 67.4682 647.219 76.025C643.774 78.7581 638.576 79.2451 634.593 79.0562C635.081 79.8513 643.186 88.1895 647.956 93.2779" fill="#979797"/>
<path d="M442.989 60.1935C442.989 60.1935 447.789 46.27 448.725 44.3718L465.404 44.3519L484.433 99.887H476.128L459.718 53.2665H455.984L437.582 99.887H428.212L438.448 73.9183L430.791 53.2367L426.24 53.2566L409.661 99.7776L400.799 99.877L419.808 44.332L436.477 44.4016" fill="#979797"/>
<path d="M322.124 44.2327V53.2666L280.302 53.1771V68.0845H320.132V76.0351H280.302V90.9425L322.124 91.1115V99.887H271.967L271.28 47.6614V44.2327H322.124Z" fill="#979797"/>
<path d="M540.195 44.2327C540.195 45.8924 540.195 53.2666 540.195 53.2666L498.373 53.1771V68.0845H539.199L539.259 76.6513H498.752L498.373 90.9425H540.195C540.195 90.9425 540.195 98.2273 540.195 99.887H490.407V44.2327H540.195Z" fill="#979797"/>
<path d="M364.941 44.332C379.639 44.8289 384.18 67.4683 373.395 76.0251C369.95 78.7581 364.752 79.2451 360.769 79.0563C361.426 80.1197 375.686 94.6693 377.398 96.8955C378.165 97.8893 379.838 99.8869 379.838 99.8869L367.003 100.026C367.003 100.026 346.809 76.4823 343.045 72.0597C343.045 72.0597 357.204 72.5169 362.243 71.6622C364.971 71.1951 367.212 69.9429 368.656 68.8099C373.336 65.093 371.016 53.7535 364.464 53.187H336.084L336.313 99.8969C336.313 99.8969 328.776 99.8969 327.123 99.8969V44.2425C340.217 44.3419 354.874 44.004 364.961 44.3419L364.941 44.332Z" fill="#979797"/>
<path d="M252.331 44.2326C267.168 44.8984 272.475 68.949 258.734 77.8637C257.857 78.4302 255.249 79.901 253.416 80.2886C246.466 81.7297 223.544 81.0042 223.544 81.0042V99.8869C221.881 99.8869 214.582 99.8869 214.582 99.8869V72.0597H250.927C255.01 71.9603 257.599 67.4682 258.206 64.3377C259.441 57.9176 256.085 53.1074 248.079 53.2565C234.626 53.505 214.841 53.2565 214.841 53.2565L214.592 44.2226C214.592 44.2226 238.301 43.5866 252.351 44.2226L252.331 44.2326Z" fill="#979797"/>
<path d="M595.958 44.2327V53.1771H574.051V99.887C572.388 99.887 565.089 100.463 565.089 98.3962V53.1771H543.182V44.2327H595.958Z" fill="#979797"/>
<path d="M714.453 44.2327V90.9425L747.313 90.9227C747.313 90.9227 747.313 98.2273 747.313 99.887H706.487V44.2327H714.453Z" fill="#979797"/>
<path d="M395.342 99.887H386.848V44.2327H395.81" fill="#979797"/>
<path d="M456.033 99.8868L447.599 100.046L444.284 90.8032L443.845 89.4019C443.776 89.3622 446.962 82.0079 448.028 78.7581C449.163 81.6799 449.87 83.8663 450.388 85.3968C451.333 88.1696 456.024 99.8769 456.024 99.8769L456.033 99.8868Z" fill="#979797"/>
<path d="M189.26 34.006L189.29 61.6046L159.506 72.1391L188.911 83.5483L189.27 110.282L98.5659 142.333L94.2144 143.665L0.334265 110.252L0.314349 82.6737L30.0776 72.1292L0.294434 61.5946L0.782357 33.7476L94.3339 0.325195L189.25 33.9961L189.26 34.006ZM94.3339 14.6959L92.442 15.3121L14.723 43.7058L14.2749 51.6266L94.4634 80.3581C99.711 79.414 112.208 74.5542 112.208 74.5542L131.784 82.0178C131.784 82.0178 131.516 82.137 129.743 82.8526L94.3339 94.55L50.7197 79.7817C46.4578 82.2166 14.0658 92.7511 14.0658 92.7511V100.215L93.4378 129.294L94.324 129.543L174.891 99.9067L175.329 92.612L98.0481 64.9041C97.3212 64.6854 96.0168 64.0792 96.0168 64.0792L77.167 69.754C77.167 69.754 76.8783 69.6745 76.5198 69.5651C74.9963 69.098 61.4838 64.7451 59.3529 63.7711C58.5065 63.3835 55.9275 62.3301 55.9275 62.3301C55.9275 62.3301 57.4809 61.863 57.9489 61.694L94.2841 49.6687L138.864 64.4668L175.349 51.6564C175.628 51.3383 175.677 44.5207 175.309 43.9443L94.3339 14.686V14.6959Z" fill="#A3866B"/>
</g>
<defs>
<clipPath id="clip0_301_4">
<rect width="747" height="144" fill="white"/>
</clipPath>
</defs>
</svg>
